<svg xmlns="http://www.w3.org/2000/svg" width="232" height="53" viewBox="0 0 232 53">
    <g data-name="Group 2823" transform="translate(-72 -627)">
        <rect data-name="Rectangle 447" width="232" height="53" rx="6.679" transform="translate(72 627)"/>
        <g data-name="Group 2026">
            <g data-name="Group 2008">
                <path data-name="Path 1693" d="M2188.448 466.6h1.354v1.777h-.469l-3.034 8.954h-1.755zm-1.525 6.492h4.849l.483 1.339h-5.815zm2.447-4.715V466.6h.885l3.9 10.731h-1.755z" transform="translate(-2016.295 180.863)" style="fill:#fff"/>
                <path data-name="Path 1694" d="M2210.966 473.632h1.621v1.339h.037a2.749 2.749 0 0 1 .591-.8 2.527 2.527 0 0 1 .829-.513 2.862 2.862 0 0 1 1.026-.179 3.035 3.035 0 0 1 1.733.495 3.193 3.193 0 0 1 1.138 1.406 5.321 5.321 0 0 1 .4 2.16v.008a5.251 5.251 0 0 1-.406 2.157 3.263 3.263 0 0 1-1.134 1.406 3.138 3.138 0 0 1-2.74.319 2.574 2.574 0 0 1-.844-.509 2.808 2.808 0 0 1-.6-.784h-.03v3.919h-1.621zm4.774 6.266a2.035 2.035 0 0 0 .707-.926 3.752 3.752 0 0 0 .245-1.42v-.008a3.8 3.8 0 0 0-.245-1.435 2.014 2.014 0 0 0-.707-.922 1.875 1.875 0 0 0-1.094-.319 1.824 1.824 0 0 0-1.078.331 2.189 2.189 0 0 0-.733.93 3.5 3.5 0 0 0-.263 1.416v.008a3.424 3.424 0 0 0 .268 1.409 2.215 2.215 0 0 0 .733.93 1.8 1.8 0 0 0 1.074.331 1.857 1.857 0 0 0 1.094-.323z" transform="translate(-2032.127 176.738)" style="fill:#fff"/>
                <path data-name="Path 1695" d="M2232.452 473.632h1.621v1.339h.038a2.761 2.761 0 0 1 .591-.8 2.531 2.531 0 0 1 .83-.513 2.858 2.858 0 0 1 1.026-.179 3.036 3.036 0 0 1 1.733.495 3.2 3.2 0 0 1 1.137 1.406 5.321 5.321 0 0 1 .4 2.16v.008a5.256 5.256 0 0 1-.405 2.157 3.273 3.273 0 0 1-1.134 1.406 2.957 2.957 0 0 1-1.711.5 2.926 2.926 0 0 1-1.03-.179 2.576 2.576 0 0 1-.845-.509 2.806 2.806 0 0 1-.6-.784h-.03v3.919h-1.621zm4.774 6.266a2.029 2.029 0 0 0 .707-.926 3.752 3.752 0 0 0 .245-1.42v-.008a3.8 3.8 0 0 0-.245-1.435 2.008 2.008 0 0 0-.707-.922 1.871 1.871 0 0 0-1.093-.319 1.827 1.827 0 0 0-1.079.331 2.19 2.19 0 0 0-.732.93 3.5 3.5 0 0 0-.264 1.416v.008a3.428 3.428 0 0 0 .268 1.409 2.221 2.221 0 0 0 .733.93 1.8 1.8 0 0 0 1.075.331 1.854 1.854 0 0 0 1.092-.323z" transform="translate(-2045.001 176.738)" style="fill:#fff"/>
                <path data-name="Path 1696" d="M2262.949 476.878a3.349 3.349 0 0 1-1.431-1.045 2.919 2.919 0 0 1-.595-1.625l-.008-.111h1.629l.015.1a1.551 1.551 0 0 0 .412.851 2.181 2.181 0 0 0 .889.554 3.8 3.8 0 0 0 1.264.193 3.457 3.457 0 0 0 1.242-.2 1.807 1.807 0 0 0 .806-.573 1.38 1.38 0 0 0 .287-.87v-.008a1.265 1.265 0 0 0-.465-1.03 3.692 3.692 0 0 0-1.535-.614l-1.168-.245a4.78 4.78 0 0 1-2.35-1.074 2.546 2.546 0 0 1-.773-1.93v-.008a2.734 2.734 0 0 1 .505-1.61 3.3 3.3 0 0 1 1.375-1.086 4.918 4.918 0 0 1 2.016-.39 4.82 4.82 0 0 1 1.971.38 3.291 3.291 0 0 1 1.353 1.06 2.962 2.962 0 0 1 .558 1.588l.008.119h-1.629l-.014-.1a1.648 1.648 0 0 0-.368-.863 1.925 1.925 0 0 0-.785-.546 3.442 3.442 0 0 0-2.276.007 1.749 1.749 0 0 0-.758.547 1.317 1.317 0 0 0-.268.826v.007a1.2 1.2 0 0 0 .476.982 3.625 3.625 0 0 0 1.48.6l1.168.253a4.978 4.978 0 0 1 2.421 1.067 2.577 2.577 0 0 1 .755 1.959v.008a2.916 2.916 0 0 1-.5 1.7 3.165 3.165 0 0 1-1.413 1.108 6.311 6.311 0 0 1-4.3.026z" transform="translate(-2062.057 181.13)" style="fill:#fff"/>
                <path data-name="Path 1697" d="M2284.725 478.264a2.216 2.216 0 0 1-.569-1.7v-4.477h-1.123v-1.279h1.123v-2.037h1.651v2.037h1.465v1.279h-1.465v4.388a1.028 1.028 0 0 0 .261.814 1.171 1.171 0 0 0 .773.219 2.237 2.237 0 0 0 .235-.011l.2-.018v1.242q-.141.022-.356.044a4.515 4.515 0 0 1-.461.022 2.476 2.476 0 0 1-1.734-.523z" transform="translate(-2075.309 179.562)" style="fill:#fff"/>
                <path data-name="Path 1698" d="M2297.353 481.117a3.341 3.341 0 0 1-1.3-1.406 4.745 4.745 0 0 1-.461-2.168v-.015a4.675 4.675 0 0 1 .465-2.157 3.351 3.351 0 0 1 1.3-1.4 4.126 4.126 0 0 1 3.9 0 3.329 3.329 0 0 1 1.3 1.394 4.7 4.7 0 0 1 .465 2.164v.015a4.714 4.714 0 0 1-.465 2.172 3.384 3.384 0 0 1-1.3 1.4 4.106 4.106 0 0 1-3.907 0zm3.053-1.179a2.057 2.057 0 0 0 .714-.926 3.82 3.82 0 0 0 .252-1.469v-.015a3.8 3.8 0 0 0-.252-1.461 2.012 2.012 0 0 0-.722-.922 1.909 1.909 0 0 0-1.093-.316 1.863 1.863 0 0 0-1.083.32 2.087 2.087 0 0 0-.725.922 3.667 3.667 0 0 0-.26 1.458v.015a3.767 3.767 0 0 0 .257 1.469 2.057 2.057 0 0 0 .725.926 1.9 1.9 0 0 0 1.1.32 1.857 1.857 0 0 0 1.087-.321z" transform="translate(-2082.836 176.738)" style="fill:#fff"/>
                <path data-name="Path 1699" d="M2317.21 473.632h1.621v1.339h.03a2.074 2.074 0 0 1 .662-1.089 1.726 1.726 0 0 1 1.145-.4 2.548 2.548 0 0 1 .324.019 2.112 2.112 0 0 1 .234.041v1.495a1.385 1.385 0 0 0-.29-.063 3.275 3.275 0 0 0-.432-.026 1.751 1.751 0 0 0-.892.219 1.437 1.437 0 0 0-.58.632 2.256 2.256 0 0 0-.2.993v4.663h-1.621z" transform="translate(-2095.789 176.738)" style="fill:#fff"/>
                <path data-name="Path 1700" d="M2329.742 481.117a3.234 3.234 0 0 1-1.271-1.406 4.861 4.861 0 0 1-.443-2.145v-.008a4.833 4.833 0 0 1 .447-2.138 3.4 3.4 0 0 1 1.256-1.428 3.5 3.5 0 0 1 1.9-.509 3.541 3.541 0 0 1 1.893.487 3.227 3.227 0 0 1 1.224 1.376 4.681 4.681 0 0 1 .432 2.064v.543h-6.358v-1.138h5.577l-.8 1.063v-.624a3.322 3.322 0 0 0-.249-1.372 1.781 1.781 0 0 0-.692-.814 1.934 1.934 0 0 0-1.022-.268 1.852 1.852 0 0 0-1.74 1.112 3.11 3.11 0 0 0-.26 1.342v.624a3.008 3.008 0 0 0 .256 1.3 1.877 1.877 0 0 0 .732.826 2.139 2.139 0 0 0 1.123.286 2.264 2.264 0 0 0 .84-.145 1.77 1.77 0 0 0 .606-.387 1.345 1.345 0 0 0 .338-.539l.022-.059h1.532l-.015.082a2.683 2.683 0 0 1-.364.885 3.044 3.044 0 0 1-.7.762 3.272 3.272 0 0 1-1.008.532 4.073 4.073 0 0 1-1.294.194 3.784 3.784 0 0 1-1.962-.498z" transform="translate(-2102.27 176.738)" style="fill:#fff"/>
            </g>
            <g data-name="Component 314 – 3">
                <path data-name="Path 1701" d="M2111.719 468.676a12.083 12.083 0 0 1-1.091 2.037c-.709 1.079-1.708 2.423-2.945 2.434-1.1.01-1.382-.716-2.875-.708s-1.8.72-2.9.71c-1.238-.011-2.184-1.225-2.893-2.3-1.982-3.017-2.189-6.558-.967-8.44a4.386 4.386 0 0 1 3.527-2.121c1.312 0 2.137.719 3.221.719 1.052 0 1.694-.72 3.21-.72a4.282 4.282 0 0 1 3.227 1.7 3.692 3.692 0 0 0 .486 6.689z" transform="translate(-1954.284 187.647)" style="fill:#fff"/>
                <g data-name="Group 2009">
                    <path data-name="Path 1702" d="M2128.85 446.611a3.683 3.683 0 0 0 .818-2.727 3.977 3.977 0 0 0-2.568 1.381 3.419 3.419 0 0 0-.839 2.66 3.358 3.358 0 0 0 2.589-1.314z" transform="translate(-1976.282 200.116)" style="fill:#fff"/>
                </g>
            </g>
        </g>
    </g>
</svg>
