<svg xmlns="http://www.w3.org/2000/svg" width="232" height="53" viewBox="0 0 232 53">
    <defs>
        <linearGradient id="xtikl5dvhb" x1=".5" x2=".5" y2="1" gradientUnits="objectBoundingBox">
            <stop offset="0" stop-color="#006aa2"/>
            <stop offset=".345" stop-color="#2f8da6"/>
            <stop offset=".786" stop-color="#66b6ac"/>
            <stop offset="1" stop-color="#7cc6af"/>
        </linearGradient>
        <linearGradient id="wrg91hhvuc" y1=".5" x2="1" y2=".5" gradientUnits="objectBoundingBox">
            <stop offset="0" stop-color="#4ab59d"/>
            <stop offset="1" stop-color="#dfe385"/>
        </linearGradient>
        <linearGradient id="acl32ywhld" x1=".5" x2=".5" y2="1" gradientUnits="objectBoundingBox">
            <stop offset="0" stop-color="#e4282d"/>
            <stop offset=".316" stop-color="#ba2d4e"/>
            <stop offset=".777" stop-color="#83357b"/>
            <stop offset="1" stop-color="#6e388d"/>
        </linearGradient>
        <linearGradient id="u6y5x1jhle" x1=".5" x2=".5" y2="1" gradientUnits="objectBoundingBox">
            <stop offset="0" stop-color="#f07165"/>
            <stop offset=".659" stop-color="#faa460"/>
            <stop offset="1" stop-color="#ffba5e"/>
        </linearGradient>
        <clipPath id="3yp476vv9a">
            <path data-name="Path 1682" d="m2108.517 308.185-3.574-2.064-6.894-3.981c-.383-.221-.764-.087-.764.375v16.218c0 .346.273.5.605.3l7.053-4.073 3.574-2.063 3.435-1.983c.4-.233.365-.552.024-.735s-3.459-1.994-3.459-1.994z" transform="translate(-2097.285 -302.037)" style="fill:none"/>
        </clipPath>
    </defs>
    <g data-name="Group 2822" transform="translate(-72 -560)">
        <rect data-name="Rectangle 437" width="232" height="53" rx="6.679" transform="translate(72 560)"/>
        <g data-name="Group 2027">
            <g data-name="Group 2005" style="clip-path:url(#3yp476vv9a)" transform="translate(136 578)">
                <path data-name="Path 1678" d="M2097.285 300.914v17.559l8.854-8.779z" transform="translate(-2097.285 -301.187)" style="fill:url(#xtikl5dvhb)"/>
                <path data-name="Path 1679" d="m2108.517 307.137-3.574-2.064-7.658-4.422v.064l8.854 8.78z" transform="translate(-2097.285 -300.988)" style="fill:url(#wrg91hhvuc)"/>
                <path data-name="Path 1680" d="M2097.285 345.8v.064l7.658-4.422 3.574-2.063-2.378-2.358z" transform="translate(-2097.285 -328.509)" style="fill:url(#acl32ywhld)"/>
                <path data-name="Path 1681" d="m2136.072 327.319-2.378 2.358 2.378 2.358 4.084-2.358z" transform="translate(-2124.839 -321.171)" style="fill:url(#u6y5x1jhle)"/>
            </g>
            <g data-name="Group 2006">
                <path data-name="Path 1683" d="M2187.914 332.813a4.53 4.53 0 0 1-1.736-1.934 6.709 6.709 0 0 1-.614-2.978v-.007a6.5 6.5 0 0 1 .61-2.923 4.465 4.465 0 0 1 1.733-1.9 5.595 5.595 0 0 1 4.834-.227 4.15 4.15 0 0 1 1.532 1.208 4.411 4.411 0 0 1 .818 1.74l.03.127h-1.721l-.03-.082a2.806 2.806 0 0 0-2.819-1.956 3.182 3.182 0 0 0-1.759.476 3.032 3.032 0 0 0-1.134 1.372 5.326 5.326 0 0 0-.394 2.153v.008a5.457 5.457 0 0 0 .406 2.2 3.185 3.185 0 0 0 1.149 1.42 3.107 3.107 0 0 0 1.763.495 3.309 3.309 0 0 0 1.536-.342 2.569 2.569 0 0 0 1.042-.955 2.73 2.73 0 0 0 .383-1.424v-.178h-2.811v-1.361h4.462v1.1a5.264 5.264 0 0 1-.55 2.491 3.77 3.77 0 0 1-1.584 1.6 5.208 5.208 0 0 1-2.491.554 5.027 5.027 0 0 1-2.655-.677z" transform="translate(-2024.316 258.222)" style="fill:#fff"/>
                <path data-name="Path 1684" d="M2214.06 337.368a3.346 3.346 0 0 1-1.3-1.406 4.748 4.748 0 0 1-.461-2.168v-.015a4.675 4.675 0 0 1 .465-2.157 3.348 3.348 0 0 1 1.3-1.4 4.126 4.126 0 0 1 3.9 0 3.323 3.323 0 0 1 1.3 1.394 4.694 4.694 0 0 1 .465 2.164v.015a4.711 4.711 0 0 1-.465 2.172 3.387 3.387 0 0 1-1.3 1.4 4.107 4.107 0 0 1-3.908 0zm3.053-1.179a2.052 2.052 0 0 0 .714-.926 3.815 3.815 0 0 0 .253-1.469v-.015a3.792 3.792 0 0 0-.253-1.461 2.009 2.009 0 0 0-.721-.922 1.909 1.909 0 0 0-1.093-.316 1.862 1.862 0 0 0-1.082.32 2.088 2.088 0 0 0-.725.922 3.658 3.658 0 0 0-.26 1.458v.015a3.771 3.771 0 0 0 .256 1.469 2.056 2.056 0 0 0 .726.926 1.9 1.9 0 0 0 1.1.32 1.857 1.857 0 0 0 1.085-.321z" transform="translate(-2040.337 253.83)" style="fill:#fff"/>
                <path data-name="Path 1685" d="M2234.823 337.368a3.345 3.345 0 0 1-1.3-1.406 4.742 4.742 0 0 1-.461-2.168v-.015a4.675 4.675 0 0 1 .466-2.157 3.347 3.347 0 0 1 1.3-1.4 4.125 4.125 0 0 1 3.9 0 3.322 3.322 0 0 1 1.3 1.394 4.691 4.691 0 0 1 .465 2.164v.015a4.708 4.708 0 0 1-.465 2.172 3.382 3.382 0 0 1-1.3 1.4 4.107 4.107 0 0 1-3.908 0zm3.053-1.179a2.054 2.054 0 0 0 .714-.926 3.82 3.82 0 0 0 .252-1.469v-.015a3.8 3.8 0 0 0-.252-1.461 2.011 2.011 0 0 0-.721-.922 1.912 1.912 0 0 0-1.094-.316 1.86 1.86 0 0 0-1.082.32 2.088 2.088 0 0 0-.725.922 3.666 3.666 0 0 0-.26 1.458v.015a3.766 3.766 0 0 0 .257 1.469 2.055 2.055 0 0 0 .725.926 1.9 1.9 0 0 0 1.1.32 1.858 1.858 0 0 0 1.086-.321z" transform="translate(-2052.778 253.83)" style="fill:#fff"/>
                <path data-name="Path 1686" d="M2255.861 340.183a3.146 3.146 0 0 1-1.2-.766 2.187 2.187 0 0 1-.572-1.079l-.015-.067h1.607l.022.06a1.259 1.259 0 0 0 .659.606 2.908 2.908 0 0 0 1.245.234 2.066 2.066 0 0 0 1.465-.48 1.681 1.681 0 0 0 .513-1.29v-1.078h-.036a2.524 2.524 0 0 1-.584.736 2.624 2.624 0 0 1-.837.483 3.264 3.264 0 0 1-2.759-.316 3.157 3.157 0 0 1-1.138-1.38 5.105 5.105 0 0 1-.4-2.112v-.008a5.073 5.073 0 0 1 .409-2.123 3.191 3.191 0 0 1 1.148-1.383 3.073 3.073 0 0 1 1.729-.487 2.727 2.727 0 0 1 1.022.186 2.641 2.641 0 0 1 .822.517 2.824 2.824 0 0 1 .588.777h.036v-1.331h1.614v7.608a2.8 2.8 0 0 1-.435 1.561 2.872 2.872 0 0 1-1.242 1.041 4.525 4.525 0 0 1-1.908.372 4.957 4.957 0 0 1-1.753-.281zm2.752-4.105a2.142 2.142 0 0 0 .714-.922 3.5 3.5 0 0 0 .256-1.4v-.007a3.472 3.472 0 0 0-.256-1.394 2.111 2.111 0 0 0-.718-.915 1.818 1.818 0 0 0-1.071-.323 1.889 1.889 0 0 0-1.1.319 2.048 2.048 0 0 0-.717.911 3.522 3.522 0 0 0-.253 1.394v.008a3.586 3.586 0 0 0 .253 1.417 2.07 2.07 0 0 0 .717.915 1.871 1.871 0 0 0 1.1.323 1.8 1.8 0 0 0 1.075-.326z" transform="translate(-2065.22 253.83)" style="fill:#fff"/>
                <path data-name="Path 1687" d="M2276.315 322.851h1.614v10.731h-1.614z" transform="translate(-2078.694 257.955)" style="fill:#fff"/>
                <path data-name="Path 1688" d="M2285.3 337.368a3.243 3.243 0 0 1-1.272-1.406 4.868 4.868 0 0 1-.442-2.146v-.008a4.844 4.844 0 0 1 .446-2.138 3.4 3.4 0 0 1 1.257-1.428 3.506 3.506 0 0 1 1.9-.509 3.545 3.545 0 0 1 1.893.487 3.221 3.221 0 0 1 1.223 1.376 4.678 4.678 0 0 1 .431 2.064v.543h-6.358v-1.138h5.577l-.8 1.063v-.628a3.314 3.314 0 0 0-.249-1.372 1.779 1.779 0 0 0-.692-.814 1.934 1.934 0 0 0-1.023-.268 1.852 1.852 0 0 0-1.74 1.111 3.1 3.1 0 0 0-.261 1.343v.625a3 3 0 0 0 .257 1.3 1.879 1.879 0 0 0 .733.826 2.138 2.138 0 0 0 1.123.286 2.262 2.262 0 0 0 .84-.145 1.76 1.76 0 0 0 .606-.387 1.345 1.345 0 0 0 .339-.539l.022-.059h1.532l-.015.082a2.688 2.688 0 0 1-.364.885 3.055 3.055 0 0 1-.7.762 3.272 3.272 0 0 1-1.007.531 4.072 4.072 0 0 1-1.294.194 3.784 3.784 0 0 1-1.962-.493z" transform="translate(-2083.053 253.83)" style="fill:#fff"/>
                <path data-name="Path 1689" d="M2312.683 322.851h1.666v10.731h-1.666zm.833 5.667h2.751a2.358 2.358 0 0 0 1.677-.562 2.031 2.031 0 0 0 .6-1.558v-.015a2.039 2.039 0 0 0-.6-1.569 2.367 2.367 0 0 0-1.677-.558h-2.751v-1.405h3.168a3.773 3.773 0 0 1 1.856.442 3.21 3.21 0 0 1 1.253 1.235 3.637 3.637 0 0 1 .454 1.84v.015a3.68 3.68 0 0 1-.454 1.848 3.2 3.2 0 0 1-1.253 1.242 3.773 3.773 0 0 1-1.856.443h-3.168z" transform="translate(-2100.486 257.955)" style="fill:#fff"/>
                <path data-name="Path 1690" d="M2334.855 322.851h1.614v10.731h-1.614z" transform="translate(-2113.772 257.955)" style="fill:#fff"/>
                <path data-name="Path 1691" d="M2343.464 337.55a2.215 2.215 0 0 1-.915-.833 2.313 2.313 0 0 1-.328-1.234v-.015a1.956 1.956 0 0 1 .762-1.625 3.777 3.777 0 0 1 2.146-.681l2.959-.178v1.13l-2.744.171a2 2 0 0 0-1.112.346.96.96 0 0 0-.39.8v.015a.965.965 0 0 0 .39.811 1.669 1.669 0 0 0 1.037.3 2.188 2.188 0 0 0 1.015-.23 1.8 1.8 0 0 0 .711-.636 1.651 1.651 0 0 0 .26-.911v-2.327a1.309 1.309 0 0 0-.4-1.015 1.648 1.648 0 0 0-1.153-.368 1.885 1.885 0 0 0-1.112.3 1.253 1.253 0 0 0-.525.766l-.015.067h-1.517l.008-.082a2.369 2.369 0 0 1 .459-1.221 2.665 2.665 0 0 1 1.093-.851 4.037 4.037 0 0 1 1.659-.313 3.956 3.956 0 0 1 1.658.32 2.54 2.54 0 0 1 1.086.9 2.4 2.4 0 0 1 .386 1.361v5.392h-1.621v-1.234h-.03a2.562 2.562 0 0 1-.595.733 2.7 2.7 0 0 1-.822.476 2.824 2.824 0 0 1-.978.168 2.99 2.99 0 0 1-1.372-.302z" transform="translate(-2118.186 253.83)" style="fill:#fff"/>
                <path data-name="Path 1692" d="M2362.141 340.517a3.883 3.883 0 0 1-.379-.052v-1.257c.059.01.135.021.227.034a2.263 2.263 0 0 0 .3.018 1.835 1.835 0 0 0 .911-.193 1.318 1.318 0 0 0 .532-.759l.133-.372-2.848-7.831h1.748l2.075 6.715-.282-.349h.394l-.282.349 2.082-6.715h1.7l-2.915 8.181a4.7 4.7 0 0 1-.68 1.309 2.276 2.276 0 0 1-.937.721 3.5 3.5 0 0 1-1.32.223c-.152 0-.306-.008-.459-.022z" transform="translate(-2129.449 253.608)" style="fill:#fff"/>
            </g>
        </g>
    </g>
</svg>
